#!OML:ASF H:\Terrain\Walking\May29\JustinRory\Justin.ASF
:FULLY-SPECIFIED
:DEGREES
95
root 10.6963 11.2474 10.1829 8.28058 -42.6318 -13.4732
lowerback 44.5258 -0.445149 -2.46523
upperback 10.8123 -1.79755 5.46624
thorax -8.50033 -1.38351 8.03084
lowerneck 0.511472 -11.5833 -14.9724
upperneck 24.5399 -20.4855 19.7339
head 11.6119 -9.55668 7.36663
rclavicle 3.57812e-014 -4.85035e-014
rhumerus -0.903861 11.3428 -97.8323
rradius 100.091
rwrist -7.10884
rhand -23.3592 22.6774
rfingers 7.12502
rthumb 3.09619 -7.2799
lclavicle 3.57812e-014 -4.85035e-014
lhumerus 35.2486 -10.5013 66.8579
lradius 72.7414
lwrist -12.0378
lhand -4.42056 23.741
lfingers 7.12502
lthumb 21.3501 52.5848
rfemur -74.9782 -7.60324 12.2076
rtibia 97.6261
rfoot -16.7914 4.86675
rtoes -20.4574
lfemur -67.3909 26.3093 13.5979
ltibia 106.019
lfoot -31.6007 -8.22145
ltoes -34.5957
96
root 10.6768 11.1497 10.0974 7.41867 -42.3785 -13.2517
lowerback 44.997 0.134143 -2.16236
upperback 10.985 -0.975619 5.57392
thorax -8.54706 -1.01714 7.64113
lowerneck 0.611255 -12.1966 -14.1517
upperneck 23.8873 -21.2684 19.7946
head 11.4228 -9.84615 7.09284
rclavicle -2.38542e-014 2.38542e-014
rhumerus 0.125412 10.3811 -96.8215
rradius 100.287
rwrist -6.76763
rhand -22.9617 22.7391
rfingers 7.12502
rthumb 3.48006 -7.2122
lclavicle -2.38542e-014 2.38542e-014
lhumerus 35.6732 -10.5192 65.6748
lradius 72.9166
lwrist -12.0449
lhand -3.61525 24.1612
lfingers 7.12502
lthumb 22.1234 52.9155
rfemur -75.0928 -7.94527 12.27
rtibia 98.453
rfoot -16.5796 4.99585
rtoes -18.5901
lfemur -67.4626 26.2116 14.0247
ltibia 106.238
lfoot -31.9512 -7.32804
ltoes -38.9061
97
root 10.6685 11.0725 10.0044 6.78344 -42.1505 -13.0699
lowerback 45.5176 0.286126 -1.92779
upperback 10.9536 -0.706047 5.4608
thorax -8.75259 -0.885995 7.28765
lowerneck 0.448566 -12.4172 -13.9316
upperneck 23.8362 -21.5472 19.7474
head 11.4638 -9.94208 6.97372
rclavicle -4.29375e-014 2.06736e-014
rhumerus 0.748363 10.3777 -96.4474
rradius 100.451
rwrist -6.36611
rhand -22.4697 22.6174
rfingers 7.12502
rthumb 3.95524 -7.32559
lclavicle -4.29375e-014 2.06736e-014
lhumerus 35.2129 -9.63728 64.4612
lradius 73.023
lwrist -12.0322
lhand -2.95943 24.1035
lfingers 7.12502
lthumb 22.7529 52.7818
rfemur -75.4528 -8.13239 12.3348
rtibia 99.1446
rfoot -16.3053 5.04632
rtoes -17.0858
lfemur -67.6742 26.1223 14.3109
ltibia 106.358
lfoot -31.8642 -7.4997
ltoes -39.9115
98
root 10.6703 10.9972 9.91731 6.2562 -42.0308 -12.9466
lowerback 45.8304 0.278457 -2.36787
upperback 11.0135 -0.897036 5.69848
thorax -8.746 -0.99276 7.86973
lowerneck -0.0461244 -12.2859 -14.513
upperneck 24.0939 -21.1887 19.2851
head 11.5887 -9.8098 6.92367
rclavicle 3.89618e-014 -1.66979e-014
rhumerus 1.34151 12.1587 -95.8038
rradius 100.531
rwrist -6.782
rhand -21.7867 21.9553
rfingers 7.12502
rthumb 4.61472 -7.9744
lclavicle 3.89618e-014 -1.66979e-014
lhumerus 33.6963 -7.31507 63.7098
lradius 73.0975
lwrist -11.8184
lhand -3.93119 24.3043
lfingers 7.12502
lthumb 21.82 53.0941
rfemur -75.9026 -8.29674 12.5317
rtibia 99.7899
rfoot -16.2355 4.75855
rtoes -18.6938
lfemur -67.881 26.0812 14.5844
ltibia 106.462
lfoot -31.6062 -7.88274
ltoes -39.8776
99
root 10.6701 10.9181 9.83789 5.47231 -42.0052 -12.8635
lowerback 46.1571 0.339425 -2.34396
upperback 11.1879 -0.849569 5.64352
thorax -8.63618 -0.989213 7.77534
lowerneck 0.0620538 -12.1848 -14.9983
upperneck 23.9608 -21.0698 19.5892
head 11.5934 -9.78798 7.14583
rclavicle 2.8625e-014 -3.26007e-014
rhumerus 2.05138 12.932 -95.3279
rradius 100.692
rwrist -7.34551
rhand -21.1755 20.8356
rfingers 7.12502
rthumb 5.20486 -9.08046
lclavicle 2.8625e-014 -3.26007e-014
lhumerus 32.6437 -5.86103 62.6159
lradius 73.388
lwrist -11.0552
lhand -4.5527 24.922
lfingers 7.12502
lthumb 21.2231 53.7801
rfemur -75.9933 -8.58043 12.8136
rtibia 100.407
rfoot -16.1122 4.65232
rtoes -19.9213
lfemur -67.7139 26.013 14.9894
ltibia 106.583
lfoot -31.4669 -7.98396
ltoes -40.8944
